# xmcd
#
# Track frame offsets: 
#        150
#        16675
#        36725
#        51350
#
# Disc length: 942 seconds
#
# Revision: 5
# Processed by: cddbd v1.5.2PL0 Copyright (c) Steve Scherf et al.
# Submitted via: ExactAudioCopy v1.0b3
#
DISCID=2f03ac04
DTITLE=Poetry 'n' Motion - Romeo and Juliet
DYEAR=1997
DGENRE=Rap
TTITLE0=Romeo and Juliet (Original Single Edit)
TTITLE1=Romeo and Juliet (Romeo's Dancehall Day)
TTITLE2=Romeo and Juliet (JMX Flava 7" Edit)
TTITLE3=Romeo and Juliet (JMX Flava 12" Mix)
EXTD=
EXTT0=
EXTT1=
EXTT2=
EXTT3=
PLAYORDER=
